<svg width="307" height="46" viewBox="0 0 307 46" fill="none" xmlns="http://www.w3.org/2000/svg">
<rect x="0.5" y="0.5" width="155" height="45" rx="4.5" fill="black"/>
<rect x="0.5" y="0.5" width="155" height="45" rx="4.5" stroke="#A6A6A6"/>
<path d="M78.7349 25.0138C76.0171 25.0138 73.8019 27.0712 73.8019 29.9048C73.8019 32.7212 76.0171 34.7957 78.7349 34.7957C81.4539 34.7957 83.6691 32.7212 83.6691 29.9048C83.668 27.0712 81.4528 25.0138 78.7349 25.0138ZM78.7349 32.8706C77.2454 32.8706 75.9616 31.6482 75.9616 29.906C75.9616 28.1453 77.2466 26.9412 78.7349 26.9412C80.2244 26.9412 81.5083 28.1453 81.5083 29.906C81.5083 31.6471 80.2244 32.8706 78.7349 32.8706ZM67.9721 25.0138C65.2542 25.0138 63.039 27.0712 63.039 29.9048C63.039 32.7212 65.2542 34.7957 67.9721 34.7957C70.6911 34.7957 72.9063 32.7212 72.9063 29.9048C72.9063 27.0712 70.6911 25.0138 67.9721 25.0138ZM67.9721 32.8706C66.4826 32.8706 65.1987 31.6482 65.1987 29.906C65.1987 28.1453 66.4837 26.9412 67.9721 26.9412C69.4616 26.9412 70.7454 28.1453 70.7454 29.906C70.7466 31.6471 69.4616 32.8706 67.9721 32.8706ZM55.1708 26.5157V28.5903H60.1605C60.0115 29.7576 59.6209 30.6097 59.0246 31.202C58.2989 31.9242 57.163 32.7211 55.1708 32.7211C52.0994 32.7211 49.6981 30.2567 49.6981 27.2C49.6981 24.1433 52.0994 21.6788 55.1708 21.6788C56.8279 21.6788 58.0378 22.3274 58.931 23.1612L60.402 21.6972C59.154 20.5116 57.4981 19.6042 55.1708 19.6042C50.9635 19.6042 47.4263 23.0128 47.4263 27.2C47.4263 31.3871 50.9635 34.7957 55.1708 34.7957C57.4415 34.7957 59.1552 34.054 60.4945 32.6648C61.8719 31.294 62.3006 29.3666 62.3006 27.8106C62.3006 27.3299 62.2636 26.8849 62.1885 26.5146H55.1708V26.5157ZM107.527 28.1269C107.118 27.0344 105.87 25.0138 103.319 25.0138C100.788 25.0138 98.6833 26.9965 98.6833 29.9048C98.6833 32.6464 100.769 34.7957 103.561 34.7957C105.813 34.7957 107.117 33.425 107.657 32.628L105.982 31.5159C105.424 32.3313 104.66 32.8684 103.561 32.8684C102.463 32.8684 101.681 32.3681 101.178 31.386L107.75 28.6812L107.527 28.1269ZM100.825 29.7576C100.769 27.867 102.296 26.9044 103.394 26.9044C104.251 26.9044 104.976 27.3311 105.219 27.9417L100.825 29.7576ZM95.4824 34.5002H97.641V20.124H95.4824V34.5002ZM91.9441 26.1075H91.8701C91.3859 25.5325 90.4546 25.0138 89.2828 25.0138C86.825 25.0138 84.5728 27.1632 84.5728 29.9243C84.5728 32.6659 86.825 34.7969 89.2828 34.7969C90.4557 34.7969 91.3859 34.2782 91.8701 33.686H91.9441V34.3898C91.9441 36.2608 90.9387 37.2614 89.3198 37.2614C87.9979 37.2614 87.1786 36.3172 86.8435 35.5203L84.9634 36.2988C85.503 37.5948 86.9359 39.1887 89.3198 39.1887C91.8516 39.1887 93.9929 37.7064 93.9929 34.0931V25.3117H91.9452V26.1075H91.9441ZM89.4689 32.8706C87.9794 32.8706 86.7325 31.6286 86.7325 29.9243C86.7325 28.2005 87.9794 26.9412 89.4689 26.9412C90.9388 26.9412 92.0931 28.2005 92.0931 29.9243C92.0931 31.6286 90.9388 32.8706 89.4689 32.8706ZM117.642 20.124H112.476V34.5002H114.631V29.0538H117.641C120.031 29.0538 122.381 27.3322 122.381 24.5895C122.381 21.8467 120.032 20.124 117.642 20.124ZM117.698 27.0528H114.631V22.125H117.698C119.31 22.125 120.225 23.4533 120.225 24.5895C120.225 25.7027 119.31 27.0528 117.698 27.0528ZM131.024 24.9885C129.463 24.9885 127.846 25.6728 127.177 27.1897L129.091 27.9843C129.5 27.1896 130.262 26.9297 131.061 26.9297C132.176 26.9297 133.31 27.5956 133.328 28.779V28.9273C132.937 28.7053 132.101 28.373 131.079 28.373C129.017 28.373 126.916 29.5011 126.916 31.6091C126.916 33.533 128.608 34.7716 130.503 34.7716C131.952 34.7716 132.751 34.1242 133.253 33.3651H133.327V34.4749H135.409V28.963C135.41 26.4123 133.494 24.9885 131.024 24.9885ZM130.763 32.8672C130.058 32.8672 129.072 32.5153 129.072 31.6459C129.072 30.5362 130.299 30.1106 131.359 30.1106C132.305 30.1106 132.753 30.3142 133.328 30.5914C133.16 31.9242 132.008 32.8672 130.763 32.8672ZM142.992 25.3025L140.52 31.5355H140.446L137.881 25.3025H135.558L139.405 34.0137L137.212 38.8598H139.461L145.39 25.3025H142.992ZM123.572 34.5002H125.727V20.124H123.572V34.5002Z" fill="white"/>
<path d="M54.7942 11.7794C54.7942 12.7431 54.5076 13.5102 53.9333 14.0829C53.2816 14.7637 52.4311 15.1041 51.3865 15.1041C50.3857 15.1041 49.5341 14.7591 48.835 14.0691C48.1347 13.3779 47.7846 12.5223 47.7846 11.5011C47.7846 10.4788 48.1347 9.62317 48.835 8.93317C49.5341 8.24202 50.3857 7.89702 51.3865 7.89702C51.8833 7.89702 52.3583 7.99362 52.8089 8.18567C53.2608 8.37887 53.6225 8.63532 53.8929 8.95617L53.2839 9.56337C52.8251 9.01712 52.193 8.74457 51.3853 8.74457C50.655 8.74457 50.0241 8.99987 49.4913 9.51047C48.9586 10.0211 48.6929 10.6846 48.6929 11.5C48.6929 12.3153 48.9586 12.9789 49.4913 13.4895C50.0241 14.0001 50.655 14.2554 51.3853 14.2554C52.1595 14.2554 52.8055 13.9989 53.322 13.4849C53.6571 13.1502 53.8513 12.6845 53.9033 12.0876H51.3853V11.2585H54.7445C54.7792 11.439 54.7942 11.6127 54.7942 11.7794Z" fill="white"/>
<path d="M60.1214 8.89759H56.9644V11.0849H59.8117V11.914H56.9644V14.1013H60.1214V14.95H56.0735V8.05004H60.1214V8.89759Z" fill="white"/>
<path d="M63.878 14.95H62.9871V8.89759H61.0503V8.05004H65.8147V8.89759H63.878V14.95Z" fill="white"/>
<path d="M69.2617 14.95V8.05004H70.1526V14.95H69.2617Z" fill="white"/>
<path d="M74.1036 14.95H73.2127V8.89759H71.276V8.05004H76.0403V8.89759H74.1036V14.95Z" fill="white"/>
<path d="M85.0592 14.0588C84.3774 14.7557 83.5304 15.1041 82.517 15.1041C81.5036 15.1041 80.6565 14.7557 79.9759 14.0588C79.2941 13.3619 78.9544 12.5086 78.9544 11.5C78.9544 10.4915 79.2941 9.63818 79.9759 8.94128C80.6565 8.24438 81.5036 7.89478 82.517 7.89478C83.5246 7.89478 84.3705 8.24552 85.0546 8.94587C85.7387 9.64622 86.0807 10.4972 86.0807 11.5C86.0807 12.5086 85.7398 13.3619 85.0592 14.0588ZM80.6334 13.4803C81.1465 13.9978 81.774 14.2554 82.517 14.2554C83.26 14.2554 83.8886 13.9967 84.4005 13.4803C84.9136 12.9628 85.1713 12.3027 85.1713 11.5C85.1713 10.6973 84.9136 10.0372 84.4005 9.51973C83.8886 9.00223 83.26 8.74463 82.517 8.74463C81.774 8.74463 81.1465 9.00338 80.6334 9.51973C80.1215 10.0372 79.8638 10.6973 79.8638 11.5C79.8638 12.3027 80.1215 12.9628 80.6334 13.4803Z" fill="white"/>
<path d="M87.331 14.95V8.05004H88.415L91.7846 13.4171H91.8227L91.7846 12.0877V8.05004H92.6755V14.95H91.7453L88.2197 9.32194H88.1815L88.2197 10.6513V14.95H87.331Z" fill="white"/>
<path d="M54.7942 11.7794C54.7942 12.7431 54.5076 13.5102 53.9333 14.0829C53.2816 14.7637 52.4311 15.1041 51.3865 15.1041C50.3857 15.1041 49.5341 14.7591 48.835 14.0691C48.1347 13.3779 47.7846 12.5223 47.7846 11.5011C47.7846 10.4788 48.1347 9.62317 48.835 8.93317C49.5341 8.24202 50.3857 7.89702 51.3865 7.89702C51.8833 7.89702 52.3583 7.99362 52.8089 8.18567C53.2608 8.37887 53.6225 8.63532 53.8929 8.95617L53.2839 9.56337C52.8251 9.01712 52.193 8.74457 51.3853 8.74457C50.655 8.74457 50.0241 8.99987 49.4913 9.51047C48.9586 10.0211 48.6929 10.6846 48.6929 11.5C48.6929 12.3153 48.9586 12.9789 49.4913 13.4895C50.0241 14.0001 50.655 14.2554 51.3853 14.2554C52.1595 14.2554 52.8055 13.9989 53.322 13.4849C53.6571 13.1502 53.8513 12.6845 53.9033 12.0876H51.3853V11.2585H54.7445C54.7792 11.439 54.7942 11.6127 54.7942 11.7794Z" stroke="white" stroke-width="0.2" stroke-miterlimit="10"/>
<path d="M60.1214 8.89759H56.9644V11.0849H59.8117V11.914H56.9644V14.1013H60.1214V14.95H56.0735V8.05004H60.1214V8.89759Z" stroke="white" stroke-width="0.2" stroke-miterlimit="10"/>
<path d="M63.878 14.95H62.9871V8.89759H61.0503V8.05004H65.8147V8.89759H63.878V14.95Z" stroke="white" stroke-width="0.2" stroke-miterlimit="10"/>
<path d="M69.2617 14.95V8.05004H70.1526V14.95H69.2617Z" stroke="white" stroke-width="0.2" stroke-miterlimit="10"/>
<path d="M74.1036 14.95H73.2127V8.89759H71.276V8.05004H76.0403V8.89759H74.1036V14.95Z" stroke="white" stroke-width="0.2" stroke-miterlimit="10"/>
<path d="M85.0592 14.0588C84.3774 14.7557 83.5304 15.1041 82.517 15.1041C81.5036 15.1041 80.6565 14.7557 79.9759 14.0588C79.2941 13.3619 78.9544 12.5086 78.9544 11.5C78.9544 10.4915 79.2941 9.63818 79.9759 8.94128C80.6565 8.24438 81.5036 7.89478 82.517 7.89478C83.5246 7.89478 84.3705 8.24552 85.0546 8.94587C85.7387 9.64622 86.0807 10.4972 86.0807 11.5C86.0807 12.5086 85.7398 13.3619 85.0592 14.0588ZM80.6334 13.4803C81.1465 13.9978 81.774 14.2554 82.517 14.2554C83.26 14.2554 83.8886 13.9967 84.4005 13.4803C84.9136 12.9628 85.1713 12.3027 85.1713 11.5C85.1713 10.6973 84.9136 10.0372 84.4005 9.51973C83.8886 9.00223 83.26 8.74463 82.517 8.74463C81.774 8.74463 81.1465 9.00338 80.6334 9.51973C80.1215 10.0372 79.8638 10.6973 79.8638 11.5C79.8638 12.3027 80.1215 12.9628 80.6334 13.4803Z" stroke="white" stroke-width="0.2" stroke-miterlimit="10"/>
<path d="M87.331 14.95V8.05004H88.415L91.7846 13.4171H91.8227L91.7846 12.0877V8.05004H92.6755V14.95H91.7453L88.2197 9.32194H88.1815L88.2197 10.6513V14.95H87.331Z" stroke="white" stroke-width="0.2" stroke-miterlimit="10"/>
<g filter="url(#filter0_ii_1_641)">
<path d="M12.0594 8.66867C11.7231 9.02287 11.5244 9.57257 11.5244 10.2844V35.7178C11.5244 36.4308 11.7231 36.9794 12.0594 37.3336L12.1449 37.4164L26.4611 23.169V23.0011V22.8332L12.1449 8.58472L12.0594 8.66867Z" fill="url(#paint0_linear_1_641)"/>
<path d="M31.2323 27.9197L26.4611 23.169V23.0011V22.8332L31.2335 18.0837L31.341 18.1447L36.9951 21.3417C38.6094 22.2548 38.6094 23.7486 36.9951 24.6629L31.341 27.8599L31.2323 27.9197Z" fill="url(#paint1_linear_1_641)"/>
<g filter="url(#filter1_i_1_641)">
<path d="M31.341 27.8587L26.4599 23.0011L12.0594 37.3336C12.5909 37.8948 13.4703 37.9638 14.4606 37.4049L31.341 27.8587Z" fill="url(#paint2_linear_1_641)"/>
</g>
<path d="M31.341 18.1435L14.4606 8.59852C13.4703 8.03847 12.5909 8.10862 12.0594 8.66982L26.4611 23.0023L31.341 18.1435Z" fill="url(#paint3_linear_1_641)"/>
</g>
<rect x="169.5" y="0.5" width="137" height="45" rx="6.5" fill="#0C0D10"/>
<rect x="169.5" y="0.5" width="137" height="45" rx="6.5" stroke="#A6A6A6"/>
<path d="M262.755 22.081V24.7157H261.103V26.4435H262.755V32.3142C262.755 34.3189 263.662 35.1207 265.943 35.1207C266.344 35.1207 266.726 35.073 267.06 35.0157V33.307C266.774 33.3357 266.592 33.3547 266.277 33.3547C265.256 33.3547 264.807 32.8774 264.807 31.7892V26.4435H267.06V24.7157H264.807V22.081H262.755Z" fill="white"/>
<path d="M272.872 35.2639C275.907 35.2639 277.769 33.2306 277.769 29.8609C277.769 26.5103 275.898 24.4675 272.872 24.4675C269.836 24.4675 267.965 26.5103 267.965 29.8609C267.965 33.2306 269.827 35.2639 272.872 35.2639ZM272.872 33.4407C271.087 33.4407 270.084 32.1329 270.084 29.8609C270.084 27.6081 271.087 26.2908 272.872 26.2908C274.647 26.2908 275.659 27.6081 275.659 29.8609C275.659 32.1233 274.647 33.4407 272.872 33.4407Z" fill="white"/>
<path d="M279.362 35.0635H281.414V28.9254C281.414 27.4649 282.512 26.4817 284.068 26.4817C284.43 26.4817 285.041 26.5485 285.213 26.6058V24.5821C284.994 24.5248 284.602 24.4961 284.297 24.4961C282.941 24.4961 281.786 25.2407 281.49 26.2621H281.338V24.668H279.362V35.0635Z" fill="white"/>
<path d="M290.309 26.2144C291.827 26.2144 292.82 27.274 292.868 28.9064H287.617C287.732 27.2836 288.791 26.2144 290.309 26.2144ZM292.858 32.257C292.476 33.0684 291.627 33.517 290.386 33.517C288.744 33.517 287.684 32.362 287.617 30.5387V30.4242H294.958V29.7082C294.958 26.4435 293.211 24.4675 290.319 24.4675C287.388 24.4675 285.527 26.5772 285.527 29.8991C285.527 33.2211 287.35 35.2639 290.328 35.2639C292.705 35.2639 294.366 34.1184 294.834 32.257H292.858Z" fill="white"/>
<path d="M249.296 31.2246C249.454 33.7772 251.581 35.4097 254.747 35.4097C258.131 35.4097 260.248 33.6981 260.248 30.9673C260.248 28.8203 259.041 27.633 256.113 26.9503L254.539 26.5645C252.679 26.1291 251.927 25.5454 251.927 24.5263C251.927 23.2401 253.095 22.3991 254.846 22.3991C256.508 22.3991 257.656 23.2203 257.864 24.5362H260.021C259.892 22.1319 257.775 20.4401 254.876 20.4401C251.759 20.4401 249.682 22.1319 249.682 24.6747C249.682 26.7723 250.859 28.0189 253.441 28.6224L255.282 29.0677C257.171 29.5129 258.002 30.1659 258.002 31.2543C258.002 32.5207 256.696 33.4408 254.915 33.4408C253.006 33.4408 251.68 32.5801 251.492 31.2246H249.296Z" fill="white"/>
<path d="M228.035 24.4961C226.622 24.4961 225.401 25.2025 224.771 26.3862H224.618V24.668H222.642V38.5191H224.694V33.4884H224.856C225.401 34.5862 226.575 35.2353 228.054 35.2353C230.679 35.2353 232.35 33.1638 232.35 29.8609C232.35 26.5581 230.679 24.4961 228.035 24.4961ZM227.453 33.3929C225.735 33.3929 224.656 32.0374 224.656 29.8705C224.656 27.694 225.735 26.3385 227.462 26.3385C229.2 26.3385 230.24 27.6654 230.24 29.8609C230.24 32.066 229.2 33.3929 227.453 33.3929Z" fill="white"/>
<path d="M239.532 24.4961C238.119 24.4961 236.897 25.2025 236.267 26.3862H236.114V24.668H234.138V38.5191H236.19V33.4884H236.353C236.897 34.5862 238.071 35.2353 239.551 35.2353C242.176 35.2353 243.846 33.1638 243.846 29.8609C243.846 26.5581 242.176 24.4961 239.532 24.4961ZM238.949 33.3929C237.231 33.3929 236.152 32.0374 236.152 29.8705C236.152 27.694 237.231 26.3385 238.959 26.3385C240.696 26.3385 241.737 27.6654 241.737 29.8609C241.737 32.066 240.696 33.3929 238.949 33.3929Z" fill="white"/>
<path d="M218.959 35.0635H221.314L216.159 20.7864H213.775L208.62 35.0635H210.896L212.212 31.274H217.653L218.959 35.0635ZM214.853 23.3786H215.022L217.09 29.414H212.776L214.853 23.3786Z" fill="white"/>
<path d="M209.999 10.0176V16.905H212.485C214.538 16.905 215.726 15.6401 215.726 13.4398C215.726 11.2729 214.528 10.0176 212.485 10.0176H209.999ZM211.068 10.9913H212.366C213.793 10.9913 214.638 11.8981 214.638 13.4541C214.638 15.034 213.808 15.9313 212.366 15.9313H211.068V10.9913Z" fill="white"/>
<path d="M219.366 17.0052C220.884 17.0052 221.815 15.9885 221.815 14.3037C221.815 12.6284 220.879 11.607 219.366 11.607C217.848 11.607 216.913 12.6284 216.913 14.3037C216.913 15.9885 217.844 17.0052 219.366 17.0052ZM219.366 16.0936C218.474 16.0936 217.972 15.4397 217.972 14.3037C217.972 13.1773 218.474 12.5186 219.366 12.5186C220.254 12.5186 220.76 13.1773 220.76 14.3037C220.76 15.4349 220.254 16.0936 219.366 16.0936Z" fill="white"/>
<path d="M229.741 11.7072H228.714L227.789 15.6735H227.707L226.638 11.7072H225.655L224.586 15.6735H224.509L223.579 11.7072H222.538L223.97 16.905H225.025L226.094 13.0771H226.175L227.249 16.905H228.314L229.741 11.7072Z" fill="white"/>
<path d="M230.922 16.905H231.949V13.8646C231.949 13.0532 232.431 12.5473 233.19 12.5473C233.948 12.5473 234.311 12.9625 234.311 13.7978V16.905H235.337V13.54C235.337 12.3038 234.698 11.607 233.538 11.607C232.755 11.607 232.24 11.9554 231.987 12.5329H231.91V11.7072H230.922V16.905Z" fill="white"/>
<path d="M236.954 16.905H237.98V9.67871H236.954V16.905Z" fill="white"/>
<path d="M241.839 17.0052C243.357 17.0052 244.288 15.9885 244.288 14.3037C244.288 12.6284 243.352 11.607 241.839 11.607C240.321 11.607 239.386 12.6284 239.386 14.3037C239.386 15.9885 240.317 17.0052 241.839 17.0052ZM241.839 16.0936C240.947 16.0936 240.445 15.4397 240.445 14.3037C240.445 13.1773 240.947 12.5186 241.839 12.5186C242.727 12.5186 243.233 13.1773 243.233 14.3037C243.233 15.4349 242.727 16.0936 241.839 16.0936Z" fill="white"/>
<path d="M247.345 16.127C246.787 16.127 246.381 15.8549 246.381 15.3872C246.381 14.929 246.706 14.6855 247.422 14.6378L248.691 14.5567V14.991C248.691 15.6354 248.118 16.127 247.345 16.127ZM247.083 16.9909C247.765 16.9909 248.333 16.6949 248.643 16.1747H248.725V16.905H249.713V13.3539C249.713 12.2561 248.978 11.607 247.675 11.607C246.496 11.607 245.656 12.1797 245.551 13.0723H246.543C246.658 12.7048 247.054 12.4948 247.627 12.4948C248.328 12.4948 248.691 12.805 248.691 13.3539V13.8025L247.283 13.8837C246.047 13.96 245.35 14.4994 245.35 15.4349C245.35 16.3847 246.08 16.9909 247.083 16.9909Z" fill="white"/>
<path d="M253.195 16.9909C253.911 16.9909 254.517 16.652 254.827 16.084H254.908V16.905H255.892V9.67871H254.865V12.5329H254.789C254.507 11.9602 253.906 11.6213 253.195 11.6213C251.882 11.6213 251.038 12.6618 251.038 14.3037C251.038 15.9504 251.873 16.9909 253.195 16.9909ZM253.486 12.5425C254.345 12.5425 254.885 13.225 254.885 14.3085C254.885 15.3967 254.35 16.0697 253.486 16.0697C252.617 16.0697 252.097 15.4062 252.097 14.3037C252.097 13.2107 252.622 12.5425 253.486 12.5425Z" fill="white"/>
<path d="M262.546 17.0052C264.064 17.0052 264.995 15.9885 264.995 14.3037C264.995 12.6284 264.059 11.607 262.546 11.607C261.028 11.607 260.093 12.6284 260.093 14.3037C260.093 15.9885 261.024 17.0052 262.546 17.0052ZM262.546 16.0936C261.654 16.0936 261.152 15.4397 261.152 14.3037C261.152 13.1773 261.654 12.5186 262.546 12.5186C263.434 12.5186 263.94 13.1773 263.94 14.3037C263.94 15.4349 263.434 16.0936 262.546 16.0936Z" fill="white"/>
<path d="M266.353 16.905H267.379V13.8646C267.379 13.0532 267.861 12.5473 268.62 12.5473C269.379 12.5473 269.742 12.9625 269.742 13.7978V16.905H270.768V13.54C270.768 12.3038 270.128 11.607 268.969 11.607C268.186 11.607 267.67 11.9554 267.417 12.5329H267.341V11.7072H266.353V16.905Z" fill="white"/>
<path d="M275.494 10.4137V11.7311H274.668V12.595H275.494V15.5303C275.494 16.5327 275.948 16.9336 277.088 16.9336C277.289 16.9336 277.48 16.9097 277.647 16.8811V16.0267C277.504 16.0411 277.413 16.0506 277.255 16.0506C276.745 16.0506 276.52 15.8119 276.52 15.2678V12.595H277.647V11.7311H276.52V10.4137H275.494Z" fill="white"/>
<path d="M279.024 16.905H280.05V13.8694C280.05 13.0818 280.518 12.552 281.358 12.552C282.084 12.552 282.47 12.972 282.47 13.8025V16.905H283.496V13.5496C283.496 12.3134 282.814 11.6118 281.707 11.6118C280.924 11.6118 280.375 11.9602 280.122 12.5425H280.041V9.67871H279.024V16.905Z" fill="white"/>
<path d="M287.198 12.4804C287.957 12.4804 288.454 13.0102 288.478 13.8264H285.852C285.91 13.015 286.439 12.4804 287.198 12.4804ZM288.473 15.5017C288.282 15.9074 287.857 16.1317 287.237 16.1317C286.416 16.1317 285.886 15.5542 285.852 14.6426V14.5853H289.523V14.2273C289.523 12.595 288.649 11.607 287.203 11.607C285.738 11.607 284.807 12.6618 284.807 14.3228C284.807 15.9838 285.719 17.0052 287.208 17.0052C288.396 17.0052 289.227 16.4324 289.461 15.5017H288.473Z" fill="white"/>
<path d="M197.484 23.346C197.509 21.4128 198.547 19.5836 200.194 18.5711C199.155 17.0872 197.415 16.1464 195.605 16.0898C193.673 15.8871 191.801 17.2453 190.817 17.2453C189.814 17.2453 188.299 16.1099 186.667 16.1435C184.541 16.2122 182.558 17.4213 181.524 19.2805C179.299 23.1312 180.958 28.7904 183.089 31.903C184.155 33.4272 185.401 35.1297 187.031 35.0693C188.626 35.0031 189.222 34.0522 191.147 34.0522C193.055 34.0522 193.614 35.0693 195.277 35.0309C196.988 35.0031 198.067 33.5 199.095 31.9614C199.861 30.8754 200.451 29.6751 200.841 28.405C198.83 27.5543 197.487 25.53 197.484 23.346Z" fill="white"/>
<path d="M194.343 14.0428C195.276 12.9224 195.736 11.4824 195.625 10.0286C194.199 10.1783 192.882 10.8598 191.936 11.9371C191.011 12.9897 190.53 14.4044 190.621 15.8027C192.047 15.8174 193.449 15.1544 194.343 14.0428Z" fill="white"/>
<defs>
<filter id="filter0_ii_1_641" x="11.5244" y="8.21204" width="26.6815" height="29.5789" filterUnits="userSpaceOnUse" color-interpolation-filters="sRGB">
<feFlood flood-opacity="0" result="BackgroundImageFix"/>
<feBlend mode="normal" in="SourceGraphic" in2="BackgroundImageFix" result="shape"/>
<feColorMatrix in="SourceAlpha" type="matrix" values="0 0 0 0 0 0 0 0 0 0 0 0 0 0 0 0 0 0 127 0" result="hardAlpha"/>
<feOffset dy="-0.15"/>
<feComposite in2="hardAlpha" operator="arithmetic" k2="-1" k3="1"/>
<feColorMatrix type="matrix" values="0 0 0 0 0 0 0 0 0 0 0 0 0 0 0 0 0 0 0.12 0"/>
<feBlend mode="normal" in2="shape" result="effect1_innerShadow_1_641"/>
<feColorMatrix in="SourceAlpha" type="matrix" values="0 0 0 0 0 0 0 0 0 0 0 0 0 0 0 0 0 0 127 0" result="hardAlpha"/>
<feOffset dy="0.15"/>
<feComposite in2="hardAlpha" operator="arithmetic" k2="-1" k3="1"/>
<feColorMatrix type="matrix" values="0 0 0 0 1 0 0 0 0 1 0 0 0 0 1 0 0 0 0.25 0"/>
<feBlend mode="normal" in2="effect1_innerShadow_1_641" result="effect2_innerShadow_1_641"/>
</filter>
<filter id="filter1_i_1_641" x="12.0594" y="23.0011" width="19.2816" height="14.7898" filterUnits="userSpaceOnUse" color-interpolation-filters="sRGB">
<feFlood flood-opacity="0" result="BackgroundImageFix"/>
<feBlend mode="normal" in="SourceGraphic" in2="BackgroundImageFix" result="shape"/>
<feColorMatrix in="SourceAlpha" type="matrix" values="0 0 0 0 0 0 0 0 0 0 0 0 0 0 0 0 0 0 127 0" result="hardAlpha"/>
<feOffset dy="-0.15"/>
<feComposite in2="hardAlpha" operator="arithmetic" k2="-1" k3="1"/>
<feColorMatrix type="matrix" values="0 0 0 0 0 0 0 0 0 0 0 0 0 0 0 0 0 0 0.08 0"/>
<feBlend mode="normal" in2="shape" result="effect1_innerShadow_1_641"/>
</filter>
<linearGradient id="paint0_linear_1_641" x1="25.192" y1="10.0153" x2="5.89296" y2="29.4076" gradientUnits="userSpaceOnUse">
<stop stop-color="#00A0FF"/>
<stop offset="0.0066" stop-color="#00A1FF"/>
<stop offset="0.2601" stop-color="#00BEFF"/>
<stop offset="0.5122" stop-color="#00D2FF"/>
<stop offset="0.7604" stop-color="#00DFFF"/>
<stop offset="1" stop-color="#00E3FF"/>
</linearGradient>
<linearGradient id="paint1_linear_1_641" x1="39.0965" y1="23.0011" x2="11.1368" y2="23.0011" gradientUnits="userSpaceOnUse">
<stop stop-color="#FFE000"/>
<stop offset="0.4087" stop-color="#FFBD00"/>
<stop offset="0.7754" stop-color="#FFA500"/>
<stop offset="1" stop-color="#FF9C00"/>
</linearGradient>
<linearGradient id="paint2_linear_1_641" x1="28.6903" y1="25.6391" x2="2.51828" y2="51.9375" gradientUnits="userSpaceOnUse">
<stop stop-color="#FF3A44"/>
<stop offset="1" stop-color="#C31162"/>
</linearGradient>
<linearGradient id="paint3_linear_1_641" x1="8.43255" y1="0.203294" x2="20.1191" y2="11.9463" gradientUnits="userSpaceOnUse">
<stop stop-color="#32A071"/>
<stop offset="0.0685" stop-color="#2DA771"/>
<stop offset="0.4762" stop-color="#15CF74"/>
<stop offset="0.8009" stop-color="#06E775"/>
<stop offset="1" stop-color="#00F076"/>
</linearGradient>
</defs>
</svg>
