<svg width="132" height="38" viewBox="0 0 132 38" fill="none" xmlns="http://www.w3.org/2000/svg">
<circle cx="23.4667" cy="15.4667" r="15.4667" fill="#4D77CF"/>
<path fill-rule="evenodd" clip-rule="evenodd" d="M26.7026 11.2841C26.3323 11.21 25.8323 11.1547 25.5178 11.1547C24.6663 11.1547 24.611 11.525 24.611 12.1173V13.1718H26.7396L26.554 15.3561H24.611V22H21.9459V15.3561H20.5761V13.1718H21.9459V11.8207C21.9459 9.97003 22.8157 8.93341 24.9995 8.93341C25.7583 8.93341 26.3136 9.04448 27.0353 9.19257L26.7026 11.2841Z" fill="white"/>
<circle cx="108.533" cy="15.4667" r="15.4667" fill="#0077B5"/>
<path fill-rule="evenodd" clip-rule="evenodd" d="M104.952 8.55361C104.952 9.42444 104.289 10.1292 103.252 10.1292C102.256 10.1292 101.593 9.42444 101.613 8.55361C101.593 7.64046 102.256 6.95624 103.272 6.95624C104.289 6.95624 104.933 7.64046 104.952 8.55361ZM101.697 21.5173V11.3739H104.849V21.5166H101.697V21.5173Z" fill="white"/>
<path fill-rule="evenodd" clip-rule="evenodd" d="M107.376 14.611C107.376 13.3458 107.334 12.2672 107.293 11.3752H110.031L110.176 12.7648H110.239C110.653 12.1217 111.69 11.1476 113.37 11.1476C115.444 11.1476 117 12.5167 117 15.5024V21.5186H113.848V15.8974C113.848 14.5899 113.392 13.6985 112.251 13.6985C111.379 13.6985 110.861 14.3 110.654 14.8803C110.571 15.0881 110.53 15.378 110.53 15.6691V21.5186H107.377V14.611H107.376Z" fill="white"/>
<circle cx="66.0009" cy="15.4667" r="15.4667" fill="#1DA1F2"/>
<path fill-rule="evenodd" clip-rule="evenodd" d="M74.2748 10.142C73.6664 10.4123 73.0116 10.5944 72.3248 10.6766C73.0259 10.2562 73.5643 9.59095 73.8175 8.79825C73.1622 9.18771 72.4346 9.4696 71.6617 9.6224C71.0422 8.96264 70.1591 8.55002 69.1832 8.55002C67.3082 8.55002 65.7879 10.0703 65.7879 11.9453C65.7879 12.2112 65.8182 12.4705 65.8762 12.7193C63.054 12.5781 60.5523 11.226 58.8776 9.17171C58.5852 9.67315 58.418 10.2562 58.418 10.8785C58.418 12.0562 59.0166 13.0955 59.9284 13.7045C59.3713 13.6869 58.8483 13.534 58.3899 13.2797V13.3222C58.3899 14.9677 59.561 16.3397 61.1133 16.6524C60.8287 16.7297 60.5286 16.7716 60.2191 16.7716C60.0001 16.7716 59.7872 16.7501 59.5798 16.7104C60.0117 18.0591 61.2661 19.041 62.7517 19.0686C61.59 19.9788 60.1259 20.5222 58.535 20.5222C58.2603 20.5222 57.99 20.5062 57.7246 20.4742C59.2273 21.4373 61.0118 22 62.9293 22C69.1744 22 72.5896 16.8262 72.5896 12.3398C72.5896 12.1925 72.5868 12.0457 72.5796 11.9007C73.2438 11.4207 73.8197 10.8228 74.2748 10.142Z" fill="white"/>
</svg>
